# xmcd
#
# Track frame offsets: 
#        150
#        18207
#        30517
#        55166
#        70167
#        84043
#        112952
#        133986
#        147580
#        154244
#
# Disc length: 2377 seconds
#
# Revision: 0
# Processed by: cddbd v1.5.2PL0 Copyright (c) Steve Scherf et al.
# Submitted via: ExactAudioCopy v0.99pb3
#
DISCID=7e09470a
DTITLE=Joe Smart - Guitarman
DYEAR=2008
DGENRE=Bluegrass
TTITLE0=01 Blackberry Blossom
TTITLE1=02 Alabama Jubilee
TTITLE2=03 P and Q
TTITLE3=04 Lonesome Fiddle Blues
TTITLE4=05 Passing Time
TTITLE5=06 Berserkeley
TTITLE6=07 Lincoln Road
TTITLE7=08 Beaumont Rag
TTITLE8=09 Intro
TTITLE9=10 Under the Double Eagle
EXTD=
EXTT0=
EXTT1=
EXTT2=
EXTT3=
EXTT4=
EXTT5=
EXTT6=
EXTT7=
EXTT8=
EXTT9=
PLAYORDER=
